# xmcd
#
# Track frame offsets: 
#        150
#        17797
#        43155
#        67632
#        89925
#        113210
#        128174
#        147065
#        162840
#        191949
#        217926
#        240097
#
# Disc length: 3772 seconds
#
# Revision: 0
# Processed by: cddbd v1.5.2PL0 Copyright (c) Steve Scherf et al.
# Submitted via: ExactAudioCopy v0.99pb3
#
DISCID=a20eba0c
DTITLE=Andy Aledort and THe Groove Kings - Put A Sock In It
DYEAR=1999
DGENRE=Blues
TTITLE0=The Stumble
TTITLE1=I've Got A Thing About You
TTITLE2=Wish
TTITLE3=Cry
TTITLE4=Piston Drivin' Mama
TTITLE5=Standin' At The Riverside
TTITLE6=King's Groove
TTITLE7=Someday After A While
TTITLE8=Goin' Down The Delta
TTITLE9=Wrapped Up In Love Again
TTITLE10=Buried Summerville
TTITLE11=For My Father
EXTD=
EXTT0=
EXTT1=
EXTT2=
EXTT3=
EXTT4=
EXTT5=
EXTT6=
EXTT7=
EXTT8=
EXTT9=
EXTT10=
EXTT11=
PLAYORDER=
